<svg width="49" height="43" viewBox="0 0 49 43" fill="none" xmlns="http://www.w3.org/2000/svg">
<g clip-path="url(#clip0_131_576)">
<path d="M36.6455 20.708C36.2784 20.3178 35.7711 20.093 35.2378 20.08L29.5766 19.9422L29.7139 14.2612C29.7399 13.1473 28.8626 12.2205 27.7512 12.1944C26.6412 12.1683 25.7191 13.0487 25.6916 14.164L25.5543 19.845L19.8931 19.7072C18.7831 19.6681 17.8509 20.5368 17.809 21.6507C17.767 22.7646 18.6357 23.7 19.7457 23.7421C19.7615 23.7421 19.7789 23.7421 19.7962 23.7421L25.4575 23.8799L25.3202 29.5624C25.2942 30.6762 26.1715 31.6016 27.2829 31.6291H27.3335C28.4232 31.6291 29.3135 30.7546 29.341 29.6595L29.4783 23.9785L35.1395 24.1163H35.1901C36.3016 24.1163 37.2005 23.2113 37.2005 22.0974C37.2005 21.5796 37.0011 21.0807 36.6455 20.7051" fill="#00B7AC"/>
<path d="M20.7155 31.2189C20.7155 36.9594 16.0775 41.6135 10.357 41.6135C4.63652 41.6135 0 36.9594 0 31.2189C0 25.4784 4.63652 20.8242 10.357 20.8242C16.0775 20.8242 20.7155 25.4784 20.7155 31.2189Z" fill="#31FFF7"/>
<path d="M43.3648 6.99055C35.3839 -1.76957 21.8385 -2.38017 13.1089 5.62867C5.18435 12.8978 3.85034 24.9328 9.98708 33.7742C10.3412 34.2891 10.9092 34.6125 11.5307 34.6574C12.6407 34.73 13.6003 33.8844 13.6711 32.7691C13.7015 32.3151 13.5758 31.8626 13.3171 31.487C7.8278 23.5869 9.76017 12.7165 17.6313 7.20955C25.5038 1.70112 36.3363 3.64024 41.8241 11.5388C47.3134 19.4404 45.381 30.3093 37.5099 35.8163C35.8724 36.962 34.0513 37.8163 32.1262 38.3413C29.0029 39.2101 25.6989 39.1695 22.5988 38.2195C21.5307 37.9019 20.4091 38.5125 20.0926 39.5828C19.9712 39.9933 19.9828 40.4313 20.1244 40.8345C20.3441 41.4523 20.8471 41.9266 21.4729 42.1079C23.45 42.7011 25.5024 43.0013 27.5663 43.0013C28.5491 43.0013 29.5319 42.9331 30.506 42.8026C42.223 41.1826 50.4121 30.3368 48.7977 18.5789C48.2023 14.251 46.3089 10.2074 43.3663 6.98765" fill="#00B7AC"/>
<path d="M17.8307 36.5765C17.1832 36.1689 16.5632 35.7179 15.9749 35.2291C15.1208 34.5097 13.8489 34.6156 13.1248 35.4669L13.3329 35.641L13.1219 35.4698C12.775 35.8846 12.6088 36.4213 12.6594 36.9608C12.7057 37.4902 12.9615 37.979 13.3691 38.3183C14.1163 38.9405 14.904 39.5105 15.7278 40.0268C16.0703 40.243 16.4721 40.3474 16.8783 40.3256C17.004 40.3184 17.1268 40.301 17.2497 40.2705C18.3322 40.008 18.9985 38.9159 18.7369 37.8296C18.6112 37.3089 18.2845 36.8593 17.8293 36.5779" fill="#00B7AC"/>
</g>
<defs>
<clipPath id="clip0_131_576">
<rect width="49" height="43" fill="white"/>
</clipPath>
</defs>
</svg>
