<svg width="49" height="43" viewBox="0 0 49 43" fill="none" xmlns="http://www.w3.org/2000/svg">
<g clip-path="url(#clip0_131_565)">
<path d="M16.3086 30.2873C16.3086 34.24 13.1179 37.4442 9.18159 37.4442C5.24534 37.4442 2.05457 34.24 2.05457 30.2873C2.05457 26.3345 5.24534 23.1304 9.18159 23.1304C13.1179 23.1304 16.3086 26.3345 16.3086 30.2873Z" fill="#31FFF7"/>
<path d="M33.6929 42.9999C32.541 42.9999 31.6069 42.0619 31.6069 40.9052C31.6069 34.4924 26.4109 29.2747 20.0249 29.2747H15.7518C9.36578 29.2747 4.16983 34.4924 4.16983 40.9052C4.16983 42.0619 3.23573 42.9999 2.08382 42.9999C0.931906 42.9999 -0.00219727 42.0619 -0.00219727 40.9052C-0.00219727 32.1834 7.0642 25.0874 15.7496 25.0874H20.0226C28.708 25.0874 35.7744 32.1834 35.7744 40.9052C35.7744 42.0619 34.8403 42.9999 33.6884 42.9999H33.6929Z" fill="#00B7AC"/>
<path d="M17.8894 29.2724C11.7931 29.2724 6.83289 24.2914 6.83289 18.1717C6.83289 12.0521 11.7931 7.06885 17.8894 7.06885C23.9858 7.06885 28.9437 12.0498 28.9437 18.1717C28.9437 24.2936 23.9836 29.2724 17.8894 29.2724ZM17.8894 11.2561C14.0924 11.2561 11.0049 14.3588 11.0049 18.1695C11.0049 21.9802 14.0946 25.0828 17.8894 25.0828C21.6842 25.0828 24.774 21.9824 24.774 18.1695C24.774 14.3565 21.6865 11.2561 17.8894 11.2561Z" fill="#00B7AC"/>
<path d="M40.1193 18.3297C38.9674 18.3297 38.0333 17.3917 38.0333 16.2349V2.09476C38.0333 0.938018 38.9674 0 40.1193 0C41.2712 0 42.2054 0.938018 42.2054 2.09476V16.2372C42.2054 17.3939 41.2712 18.3319 40.1193 18.3319V18.3297Z" fill="#00B7AC"/>
<path d="M46.914 11.2584H33.0305C31.8786 11.2584 30.9445 10.3203 30.9445 9.1636C30.9445 8.00687 31.8786 7.06885 33.0305 7.06885H46.914C48.0659 7.06885 49 8.00687 49 9.1636C49 10.3203 48.0659 11.2584 46.914 11.2584Z" fill="#00B7AC"/>
</g>
<defs>
<clipPath id="clip0_131_565">
<rect width="49" height="43" fill="white"/>
</clipPath>
</defs>
</svg>
