<svg width="1068" height="42" viewBox="0 0 1068 42" fill="none" xmlns="http://www.w3.org/2000/svg">
<path d="M24.913 3.56522C25.7246 3.56522 26.1304 3.97101 26.1304 4.78261C26.1304 5.15942 26.0145 5.46377 25.7826 5.69565C25.5797 5.89855 25.2899 6 24.913 6H6.86957V17.5217H23.2174C23.5652 17.5217 23.8406 17.6232 24.0435 17.8261C24.2464 18.029 24.3478 18.3188 24.3478 18.6957C24.3478 19.0435 24.2464 19.3188 24.0435 19.5217C23.8406 19.7246 23.5652 19.8261 23.2174 19.8261H6.86957V31.5652H25.1304C25.942 31.5652 26.3478 31.971 26.3478 32.7826C26.3478 33.1594 26.2319 33.4638 26 33.6957C25.7971 33.8986 25.5072 34 25.1304 34H6.43478C5.68116 34 5.10145 33.7971 4.69565 33.3913C4.28986 32.9565 4.08696 32.3623 4.08696 31.6087V5.91304C4.08696 5.15942 4.28986 4.57971 4.69565 4.17391C5.13044 3.76811 5.71015 3.56522 6.43478 3.56522H24.913ZM30.4825 5.47826C30.3376 5.24638 30.2651 5 30.2651 4.73913C30.2651 4.3913 30.3956 4.10145 30.6564 3.86957C30.9173 3.6087 31.2216 3.47826 31.5695 3.47826C32.0042 3.47826 32.3956 3.71015 32.7434 4.17391L42.2651 16.4783L51.7869 4.13043C52.0187 3.72464 52.3666 3.52174 52.8303 3.52174C53.1782 3.52174 53.4825 3.65217 53.7434 3.91304C54.0332 4.14493 54.1782 4.43478 54.1782 4.78261C54.1782 5.01449 54.0912 5.28985 53.9173 5.6087L43.9173 18.4783L54.2651 31.913C54.497 32.2319 54.6129 32.5362 54.6129 32.8261C54.6129 33.1739 54.4825 33.4638 54.2216 33.6957C53.9608 33.8986 53.6564 34 53.3086 34C52.7869 34 52.3811 33.7681 52.0912 33.3043L42.2216 20.5217L32.2651 33.4348C32.0042 33.8116 31.6709 34 31.2651 34C30.9173 34 30.6129 33.8696 30.3521 33.6087C30.0912 33.3478 29.9608 33.0435 29.9608 32.6957C29.9608 32.4058 30.0767 32.1014 30.3086 31.7826L40.526 18.5217L30.4825 5.47826ZM71.0392 3.56522C74.5175 3.56522 77.3726 4.36232 79.6044 5.95652C81.8363 7.52174 82.9523 9.91304 82.9523 13.1304C82.9523 16.4058 81.7929 18.8551 79.474 20.4783C77.1842 22.0725 74.2856 22.8696 70.7784 22.8696H62.561V32.5652C62.561 33 62.4305 33.3478 62.1697 33.6087C61.9088 33.8696 61.561 34 61.1262 34C60.7204 34 60.3871 33.8696 60.1262 33.6087C59.8653 33.3478 59.7349 33 59.7349 32.5652V5.91304C59.7349 5.15942 59.9378 4.57971 60.3436 4.17391C60.7784 3.76811 61.3581 3.56522 62.0827 3.56522H71.0392ZM70.7349 20.5652C73.4595 20.5652 75.7059 19.971 77.474 18.7826C79.2421 17.5942 80.1262 15.7391 80.1262 13.2174C80.1262 10.7246 79.2421 8.89855 77.474 7.73913C75.7059 6.57971 73.474 6 70.7784 6H62.561V20.5652H70.7349ZM88.7712 3.56522C89.206 3.56522 89.5538 3.69565 89.8147 3.95652C90.0756 4.21739 90.206 4.55072 90.206 4.95652V31.4783H106.641C107.047 31.4783 107.351 31.5942 107.554 31.8261C107.786 32.029 107.902 32.3333 107.902 32.7391C107.902 33.1159 107.786 33.4203 107.554 33.6522C107.351 33.8841 107.047 34 106.641 34H89.7278C88.9741 34 88.3944 33.7971 87.9886 33.3913C87.5828 32.9565 87.3799 32.3623 87.3799 31.6087V4.95652C87.3799 4.55072 87.4959 4.21739 87.7278 3.95652C87.9886 3.69565 88.3364 3.56522 88.7712 3.56522ZM108.594 18.7826C108.594 15.6812 109.231 12.942 110.507 10.5652C111.811 8.15942 113.623 6.30435 115.941 5C118.289 3.66667 120.985 3 124.028 3C127.072 3 129.753 3.65217 132.072 4.95652C134.42 6.26087 136.231 8.11594 137.507 10.5217C138.811 12.8986 139.463 15.6522 139.463 18.7826C139.463 21.8841 138.811 24.6377 137.507 27.0435C136.231 29.4203 134.42 31.2754 132.072 32.6087C129.753 33.913 127.072 34.5652 124.028 34.5652C120.956 34.5652 118.246 33.913 115.898 32.6087C113.579 31.2754 111.782 29.4203 110.507 27.0435C109.231 24.6667 108.594 21.913 108.594 18.7826ZM111.463 18.7826C111.463 21.3913 111.985 23.6957 113.028 25.6957C114.072 27.6957 115.55 29.2464 117.463 30.3478C119.376 31.4493 121.579 32 124.072 32C126.565 32 128.753 31.4493 130.637 30.3478C132.521 29.2464 133.985 27.6957 135.028 25.6957C136.072 23.6957 136.594 21.3913 136.594 18.7826C136.594 16.1739 136.072 13.8696 135.028 11.8696C133.985 9.86956 132.507 8.31884 130.594 7.21739C128.681 6.11594 126.478 5.56522 123.985 5.56522C121.492 5.56522 119.304 6.11594 117.42 7.21739C115.536 8.31884 114.072 9.86956 113.028 11.8696C111.985 13.8696 111.463 16.1739 111.463 18.7826ZM144.829 5.69565C144.829 5.08696 145.018 4.57971 145.394 4.17391C145.8 3.76811 146.322 3.56522 146.96 3.56522H157.742C161.018 3.56522 163.728 4.30435 165.873 5.78261C168.018 7.23188 169.09 9.50725 169.09 12.6087C169.09 15.1594 168.235 17.1739 166.525 18.6522C164.815 20.1014 162.655 21 160.047 21.3478L167.873 31.8696C168.076 32.1594 168.177 32.4493 168.177 32.7391C168.177 33.087 168.032 33.3913 167.742 33.6522C167.452 33.913 167.133 34.0435 166.786 34.0435C166.322 34.0435 165.974 33.8406 165.742 33.4348L157.047 21.7391H147.655V32.6522C147.655 33.029 147.525 33.3478 147.264 33.6087C147.003 33.8696 146.67 34 146.264 34C145.829 34 145.481 33.8841 145.22 33.6522C144.96 33.4203 144.829 33.087 144.829 32.6522V5.69565ZM157.307 19.4348C159.8 19.4348 161.916 18.8986 163.655 17.8261C165.394 16.7246 166.264 15.029 166.264 12.7391C166.264 10.4203 165.438 8.72464 163.786 7.65217C162.133 6.57971 160.061 6.04348 157.568 6.04348H147.655V19.4348H157.307ZM195.601 3.56522C196.412 3.56522 196.818 3.97101 196.818 4.78261C196.818 5.15942 196.702 5.46377 196.47 5.69565C196.267 5.89855 195.977 6 195.601 6H177.557V17.5217H193.905C194.253 17.5217 194.528 17.6232 194.731 17.8261C194.934 18.029 195.035 18.3188 195.035 18.6957C195.035 19.0435 194.934 19.3188 194.731 19.5217C194.528 19.7246 194.253 19.8261 193.905 19.8261H177.557V31.5652H195.818C196.63 31.5652 197.035 31.971 197.035 32.7826C197.035 33.1594 196.919 33.4638 196.688 33.6957C196.485 33.8986 196.195 34 195.818 34H177.122C176.369 34 175.789 33.7971 175.383 33.3913C174.977 32.9565 174.774 32.3623 174.774 31.6087V5.91304C174.774 5.15942 174.977 4.57971 175.383 4.17391C175.818 3.76811 176.398 3.56522 177.122 3.56522H195.601Z" fill="#00B7AC"/>
<path d="M434.391 3.56522C437.638 3.56522 440.522 4.2029 443.043 5.47826C445.565 6.75362 447.522 8.53623 448.913 10.8261C450.333 13.1159 451.043 15.7391 451.043 18.6957C451.043 21.6522 450.333 24.3043 448.913 26.6522C447.522 28.971 445.551 30.7826 443 32.087C440.478 33.3623 437.58 34 434.304 34H426.783C425.797 34 425.014 33.7246 424.435 33.1739C423.884 32.5942 423.609 31.8116 423.609 30.8261V6.73913C423.609 5.75362 423.884 4.98551 424.435 4.43478C425.014 3.85507 425.797 3.56522 426.783 3.56522H434.391ZM434.478 29.8261C436.71 29.8261 438.725 29.3768 440.522 28.4783C442.319 27.5797 443.725 26.2899 444.739 24.6087C445.754 22.9275 446.261 20.9855 446.261 18.7826C446.261 16.5797 445.739 14.6377 444.696 12.9565C443.681 11.2754 442.275 9.98551 440.478 9.08696C438.681 8.15942 436.667 7.69565 434.435 7.69565H428.304V29.8261H434.478ZM455.866 5.91304C455.866 5.18841 456.069 4.62319 456.474 4.21739C456.909 3.78261 457.489 3.56522 458.213 3.56522C458.967 3.56522 459.547 3.76811 459.953 4.17391C460.358 4.57971 460.561 5.15942 460.561 5.91304V31.6522C460.561 32.3768 460.344 32.9565 459.909 33.3913C459.503 33.7971 458.938 34 458.213 34C457.489 34 456.909 33.7971 456.474 33.3913C456.069 32.9565 455.866 32.3768 455.866 31.6522V5.91304ZM468.773 27.4348C471.44 29.4928 474.44 30.5217 477.773 30.5217C479.512 30.5217 481.02 30.1449 482.295 29.3913C483.57 28.6377 484.208 27.4638 484.208 25.8696C484.208 24.8261 483.86 23.971 483.165 23.3043C482.469 22.6377 481.599 22.1304 480.556 21.7826C479.512 21.4058 478.107 21 476.339 20.5652C474.049 20.0145 472.194 19.4783 470.773 18.9565C469.382 18.4058 468.194 17.5652 467.208 16.4348C466.223 15.3043 465.73 13.7826 465.73 11.8696C465.73 10.0145 466.252 8.42029 467.295 7.08696C468.339 5.75362 469.686 4.75362 471.339 4.08696C472.991 3.42029 474.73 3.08696 476.556 3.08696C477.976 3.08696 479.527 3.28986 481.208 3.69565C482.918 4.07246 484.397 4.63768 485.643 5.3913C486.657 5.82609 487.165 6.50725 487.165 7.43478C487.165 7.98551 486.962 8.46377 486.556 8.86956C486.179 9.27536 485.686 9.47826 485.078 9.47826C484.788 9.47826 484.483 9.42029 484.165 9.30435C483.005 8.66667 481.788 8.13043 480.512 7.69565C479.266 7.23188 477.904 7 476.426 7C474.918 7 473.541 7.3913 472.295 8.17391C471.078 8.95652 470.469 10.058 470.469 11.4783C470.469 12.4928 470.802 13.3188 471.469 13.9565C472.165 14.5942 473.02 15.1014 474.034 15.4783C475.078 15.8261 476.483 16.2174 478.252 16.6522C480.541 17.2319 482.397 17.7971 483.817 18.3478C485.237 18.8986 486.44 19.7391 487.426 20.8696C488.44 22 488.947 23.5217 488.947 25.4348C488.947 27.4348 488.411 29.1159 487.339 30.4783C486.266 31.8406 484.86 32.8551 483.121 33.5217C481.411 34.1594 479.57 34.4783 477.599 34.4783C475.947 34.4783 474.136 34.2174 472.165 33.6957C470.223 33.1449 468.498 32.3333 466.991 31.2609C466.382 30.971 465.933 30.6232 465.643 30.2174C465.353 29.8116 465.208 29.4058 465.208 29C465.208 28.4783 465.411 28.029 465.817 27.6522C466.252 27.2754 466.773 27.087 467.382 27.087C467.875 27.087 468.339 27.2029 468.773 27.4348ZM491.372 18.7826C491.372 15.8841 492.039 13.2319 493.372 10.8261C494.735 8.42029 496.59 6.52174 498.938 5.13043C501.314 3.71014 503.952 3 506.851 3C508.59 3 510.358 3.27536 512.155 3.82609C513.952 4.37681 515.488 5.2029 516.764 6.30435C517.575 6.88406 517.981 7.6087 517.981 8.47826C517.981 9.08696 517.749 9.6087 517.285 10.0435C516.851 10.4493 516.271 10.6087 515.546 10.5217C515.227 10.4348 514.865 10.2754 514.459 10.0435C514.053 9.78261 513.778 9.6087 513.633 9.52174C512.648 8.82609 511.633 8.27536 510.59 7.86957C509.575 7.46377 508.314 7.26087 506.807 7.26087C504.749 7.26087 502.909 7.7971 501.285 8.86956C499.691 9.91304 498.445 11.3188 497.546 13.087C496.648 14.8551 496.198 16.7536 496.198 18.7826C496.198 20.8116 496.648 22.7101 497.546 24.4783C498.445 26.2174 499.691 27.6232 501.285 28.6957C502.909 29.7391 504.749 30.2609 506.807 30.2609C508.372 30.2609 509.648 30.058 510.633 29.6522C511.648 29.2464 512.764 28.6377 513.981 27.8261C514.648 27.3623 515.256 26.9855 515.807 26.6957C516.474 26.6377 517.024 26.8116 517.459 27.2174C517.923 27.6232 518.155 28.1449 518.155 28.7826C518.155 29.4493 517.865 30.058 517.285 30.6087C515.981 31.913 514.387 32.8986 512.503 33.5652C510.619 34.2319 508.677 34.5652 506.677 34.5652C503.778 34.5652 501.155 33.8696 498.807 32.4783C496.488 31.058 494.662 29.1449 493.329 26.7391C492.024 24.3043 491.372 21.6522 491.372 18.7826ZM519.462 18.7826C519.462 15.6522 520.114 12.8986 521.419 10.5217C522.723 8.11594 524.564 6.26087 526.94 4.95652C529.346 3.65217 532.114 3 535.245 3C538.375 3 541.129 3.65217 543.506 4.95652C545.882 6.26087 547.723 8.11594 549.027 10.5217C550.332 12.8986 550.984 15.6377 550.984 18.7391C550.984 21.8696 550.332 24.6377 549.027 27.0435C547.723 29.4203 545.868 31.2754 543.462 32.6087C541.085 33.913 538.332 34.5652 535.201 34.5652C532.1 34.5652 529.346 33.913 526.94 32.6087C524.564 31.3043 522.723 29.4638 521.419 27.087C520.114 24.6812 519.462 21.913 519.462 18.7826ZM524.245 18.7391C524.245 21.029 524.694 23.058 525.593 24.8261C526.52 26.5652 527.824 27.913 529.506 28.8696C531.187 29.8261 533.114 30.3043 535.288 30.3043C537.433 30.3043 539.332 29.8261 540.984 28.8696C542.636 27.913 543.911 26.5652 544.81 24.8261C545.737 23.087 546.201 21.0725 546.201 18.7826C546.201 16.4928 545.737 14.4783 544.81 12.7391C543.911 11 542.622 9.65217 540.94 8.69565C539.288 7.71015 537.375 7.21739 535.201 7.21739C533.027 7.21739 531.114 7.69565 529.462 8.65217C527.81 9.6087 526.52 10.9565 525.593 12.6957C524.694 14.4348 524.245 16.4493 524.245 18.7391ZM576.634 5.08696C576.808 4.5942 577.083 4.21739 577.46 3.95652C577.837 3.69565 578.257 3.56522 578.721 3.56522C579.359 3.56522 579.924 3.78261 580.417 4.21739C580.938 4.65217 581.199 5.17391 581.199 5.78261C581.199 6.13043 581.141 6.43478 581.025 6.69565L570.025 32.2174C569.765 32.8261 569.373 33.3188 568.851 33.6957C568.359 34.0435 567.765 34.2174 567.069 34.2174C566.402 34.2174 565.808 34.0435 565.286 33.6957C564.765 33.3188 564.388 32.8261 564.156 32.2174L553.199 6.78261C553.054 6.4058 552.982 6.08696 552.982 5.82609C552.982 5.15942 553.228 4.6087 553.721 4.17391C554.243 3.73913 554.837 3.52174 555.504 3.52174C555.967 3.52174 556.388 3.65217 556.765 3.91304C557.17 4.17391 557.46 4.56522 557.634 5.08696L567.112 27.8261L576.634 5.08696ZM606.328 3.56522C606.937 3.56522 607.415 3.75362 607.763 4.13043C608.139 4.47826 608.328 4.95652 608.328 5.56522C608.328 6.17391 608.139 6.66667 607.763 7.04348C607.415 7.3913 606.937 7.56522 606.328 7.56522H590.11V16.7826H604.763C605.342 16.7826 605.792 16.9565 606.11 17.3043C606.458 17.6232 606.632 18.0725 606.632 18.6522C606.632 19.2319 606.458 19.6957 606.11 20.0435C605.792 20.3913 605.342 20.5652 604.763 20.5652H590.11V29.9565H606.545C607.154 29.9565 607.632 30.1449 607.98 30.5217C608.357 30.8696 608.545 31.3478 608.545 31.9565C608.545 32.5942 608.357 33.1014 607.98 33.4783C607.632 33.8261 607.154 34 606.545 34H588.632C587.647 34 586.864 33.7246 586.284 33.1739C585.734 32.5942 585.458 31.8116 585.458 30.8261V6.73913C585.458 5.75362 585.734 4.98551 586.284 4.43478C586.864 3.85507 587.647 3.56522 588.632 3.56522H606.328ZM612.865 6.56522C612.865 5.66667 613.14 4.94203 613.691 4.3913C614.27 3.84058 615.009 3.56522 615.908 3.56522H626.299C629.72 3.56522 632.531 4.33333 634.734 5.86956C636.937 7.4058 638.038 9.81159 638.038 13.087C638.038 15.5217 637.285 17.4928 635.778 19C634.27 20.4783 632.328 21.4928 629.952 22.0435L636.169 30.4783C636.488 30.971 636.647 31.4203 636.647 31.8261C636.647 32.4058 636.401 32.913 635.908 33.3478C635.444 33.7826 634.908 34 634.299 34C633.546 34 632.966 33.6667 632.56 33L625.082 22.7391H617.56V31.7391C617.56 32.3768 617.343 32.913 616.908 33.3478C616.502 33.7826 615.98 34 615.343 34C614.647 34 614.053 33.8116 613.56 33.4348C613.096 33.029 612.865 32.4638 612.865 31.7391V6.56522ZM625.865 19C628.009 19 629.792 18.5362 631.212 17.6087C632.633 16.6522 633.343 15.2319 633.343 13.3478C633.343 11.4058 632.662 9.97101 631.299 9.04348C629.937 8.08696 628.183 7.6087 626.038 7.6087H617.56V19H625.865Z" fill="#00B7AC"/>
<path d="M1013.78 4.56522C1014.65 4.56522 1015.35 4.82609 1015.87 5.34782C1016.42 5.86956 1016.7 6.56522 1016.7 7.43478C1016.7 8.30435 1016.42 9 1015.87 9.52174C1015.35 10.0435 1014.65 10.3043 1013.78 10.3043H999.739V17.7391H1012.35C1013.16 17.7391 1013.81 17.9855 1014.3 18.4783C1014.83 18.971 1015.09 19.6232 1015.09 20.4348C1015.09 21.2754 1014.84 21.9565 1014.35 22.4783C1013.86 22.971 1013.19 23.2174 1012.35 23.2174H999.739V31.6957C999.739 32.6812 999.435 33.4783 998.826 34.087C998.217 34.6957 997.42 35 996.435 35C995.449 35 994.652 34.6957 994.043 34.087C993.464 33.4783 993.174 32.6812 993.174 31.6957V8.52174C993.174 7.33333 993.536 6.37681 994.261 5.65217C994.986 4.92753 995.942 4.56522 997.13 4.56522H1013.78ZM1022.91 4.56522C1023.9 4.56522 1024.7 4.86956 1025.3 5.47826C1025.91 6.05797 1026.22 6.84058 1026.22 7.82609V29.2174H1039.04C1039.91 29.2174 1040.61 29.4928 1041.13 30.0435C1041.65 30.5652 1041.91 31.2609 1041.91 32.1304C1041.91 33 1041.65 33.6957 1041.13 34.2174C1040.61 34.7391 1039.91 35 1039.04 35H1023.61C1022.42 35 1021.46 34.6377 1020.74 33.913C1020.01 33.1884 1019.65 32.2174 1019.65 31V7.82609C1019.65 6.84058 1019.94 6.05797 1020.52 5.47826C1021.13 4.86956 1021.93 4.56522 1022.91 4.56522ZM1041.01 5.13043C1041.59 4.72464 1042.21 4.52174 1042.88 4.52174C1043.43 4.52174 1043.95 4.66666 1044.45 4.95652C1044.97 5.21739 1045.37 5.60869 1045.66 6.13043L1052.53 17.087L1059.36 6.13043C1059.65 5.63768 1060.04 5.26087 1060.53 5C1061.03 4.71014 1061.55 4.56522 1062.1 4.56522C1062.65 4.56522 1063.14 4.68116 1063.58 4.91304C1064.1 5.2029 1064.49 5.5942 1064.75 6.08696C1065.04 6.57971 1065.18 7.10145 1065.18 7.65217C1065.18 8.2029 1065.03 8.75362 1064.71 9.30435L1055.75 23.1739V31.6957C1055.75 32.6232 1055.43 33.4058 1054.79 34.0435C1054.18 34.6812 1053.42 35 1052.49 35C1051.53 35 1050.74 34.6957 1050.1 34.087C1049.49 33.4493 1049.18 32.6522 1049.18 31.6957V23.2609L1040.23 9.30435C1039.88 8.72464 1039.71 8.15942 1039.71 7.60869C1039.71 7.11594 1039.82 6.65217 1040.05 6.21739C1040.29 5.78261 1040.6 5.42029 1041.01 5.13043Z" fill="#00B7AC"/>
</svg>
