<svg width="90" height="39" viewBox="0 0 90 39" fill="none" xmlns="http://www.w3.org/2000/svg">
<g clip-path="url(#clip0_14_19)">
<path d="M65.162 4.92795C60.1335 4.94565 56.3268 8.86165 56.2375 14.0667C56.2375 14.0936 56.2375 14.1204 56.2375 14.1473V14.2547C56.2375 14.2828 56.2375 14.3084 56.2375 14.3353C56.3274 19.5586 60.1359 23.474 65.1693 23.474C65.7646 23.481 66.3595 23.4385 66.9478 23.347C67.452 23.2508 67.8976 22.9576 68.1867 22.5316C68.4759 22.1057 68.5849 21.5819 68.4899 21.0753C68.443 20.8252 68.3475 20.5869 68.2087 20.374C68.07 20.161 67.8908 19.9777 67.6813 19.8345C67.4719 19.6913 67.2365 19.591 66.9884 19.5393C66.7403 19.4877 66.4845 19.4857 66.2357 19.5336C65.8817 19.5772 65.5253 19.5976 65.1687 19.5946C62.2005 19.5946 60.1219 17.3797 60.0988 14.2016C60.1219 11.0351 62.2024 8.81953 65.162 8.80916C68.1521 8.81953 70.2405 11.0595 70.2405 14.2553V21.5349C70.2404 21.7897 70.2903 22.042 70.3873 22.2774C70.4844 22.5128 70.6267 22.7267 70.8061 22.9069C70.9855 23.087 71.1984 23.2299 71.4328 23.3273C71.6672 23.4247 71.9184 23.4748 72.1721 23.4746C72.4257 23.4747 72.6768 23.4245 72.9111 23.3271C73.1454 23.2297 73.3583 23.0868 73.5377 22.9066C73.717 22.7265 73.8592 22.5127 73.9562 22.2773C74.0532 22.0419 74.1031 21.7897 74.103 21.5349V14.2547C74.103 8.95503 70.2654 4.94565 65.162 4.92795Z" fill="#00B7AC"/>
<path d="M15.5834 0.107437C15.0711 0.107437 14.5798 0.311851 14.2175 0.675727C13.8553 1.0396 13.6518 1.53313 13.6518 2.04772V21.0753C13.6517 21.3301 13.7016 21.5824 13.7987 21.8178C13.8957 22.0533 14.038 22.2671 14.2174 22.4473C14.3968 22.6274 14.6098 22.7703 14.8442 22.8677C15.0785 22.9651 15.3297 23.0152 15.5834 23.015C15.837 23.0151 16.0881 22.965 16.3225 22.8675C16.5568 22.7701 16.7697 22.6272 16.949 22.4471C17.1283 22.2669 17.2705 22.0531 17.3676 21.8177C17.4646 21.5823 17.5145 21.3301 17.5144 21.0753V2.04772C17.5144 1.53323 17.311 1.03981 16.9488 0.67595C16.5867 0.312092 16.0956 0.107599 15.5834 0.107437Z" fill="#00B7AC"/>
<path d="M9.87879 0.0592131C9.72202 0.0543303 9.56222 0.0439535 9.40424 0.0354087C9.13325 0.0189293 8.82458 0 8.49282 0C3.40104 0 0.274268 3.18054 0.01421 8.55221C0.00325086 8.63926 -0.00221488 8.72691 -0.00218186 8.81465V21.0778C-0.00226175 21.3326 0.0476449 21.5849 0.144696 21.8203C0.241747 22.0557 0.384022 22.2696 0.563411 22.4497C0.742801 22.6299 0.955774 22.7727 1.19016 22.8701C1.42454 22.9676 1.67575 23.0176 1.92941 23.0174C2.18301 23.0175 2.43415 22.9674 2.66847 22.87C2.90278 22.7725 3.11567 22.6296 3.29499 22.4495C3.47432 22.2694 3.61656 22.0555 3.71358 21.8201C3.81059 21.5848 3.86048 21.3325 3.8604 21.0778V9.28828C3.8604 4.44151 6.50472 3.88059 8.49282 3.88059C8.70731 3.88059 8.93031 3.89403 9.16971 3.90807C9.3684 3.92027 9.56465 3.93127 9.76273 3.93798C10.0162 3.94563 10.2687 3.903 10.5058 3.81255C10.7429 3.7221 10.9599 3.58558 11.1445 3.41082C11.329 3.23606 11.4774 3.02647 11.5813 2.79404C11.6851 2.56162 11.7423 2.31092 11.7496 2.05627C11.7572 1.80157 11.7148 1.54786 11.6248 1.30964C11.5347 1.07141 11.3989 0.853325 11.2249 0.667866C11.0509 0.482407 10.8423 0.333205 10.6109 0.228769C10.3795 0.124333 10.1299 0.0667156 9.87636 0.0592131" fill="#00B7AC"/>
<path d="M6.96565 8.83846C6.71235 8.8383 6.46148 8.88829 6.22743 8.98559C5.99337 9.08288 5.78072 9.22558 5.6016 9.4055C5.42249 9.58542 5.28044 9.79904 5.18358 10.0342C5.08671 10.2693 5.03693 10.5212 5.03709 10.7757C5.03701 11.0301 5.08684 11.282 5.18374 11.5171C5.28064 11.7521 5.4227 11.9656 5.60181 12.1455C5.78092 12.3254 5.99356 12.468 6.22757 12.5652C6.46159 12.6625 6.7124 12.7125 6.96565 12.7123C7.21897 12.7125 7.46983 12.6625 7.70392 12.5653C7.938 12.468 8.15072 12.3254 8.32992 12.1456C8.50913 11.9657 8.65129 11.7522 8.74832 11.5171C8.84535 11.2821 8.89534 11.0301 8.89542 10.7757C8.89542 10.5212 8.8455 10.2692 8.74851 10.0341C8.65151 9.79894 8.50934 9.58533 8.33013 9.40542C8.15091 9.22552 7.93817 9.08285 7.70405 8.98557C7.46992 8.88828 7.21902 8.8383 6.96565 8.83846Z" fill="#00B7AC"/>
<path d="M36.0374 5.01644C35.8099 4.90353 35.5625 4.83674 35.3094 4.81989C35.0562 4.80305 34.8022 4.83649 34.5619 4.91828C34.3215 5.00007 34.0996 5.12862 33.9088 5.29658C33.7179 5.46454 33.5619 5.66863 33.4496 5.89719L28.4004 16.1773L23.3371 5.89534C23.1099 5.43418 22.7096 5.08258 22.2243 4.91787C21.739 4.75316 21.2084 4.78884 20.7493 5.01705C20.5219 5.12985 20.3188 5.28657 20.1516 5.47826C19.9845 5.66995 19.8566 5.89284 19.7753 6.13421C19.694 6.37557 19.6609 6.63066 19.6777 6.8849C19.6946 7.13915 19.7612 7.38754 19.8737 7.61591L26.2476 20.5583L23.5413 26.068C23.3151 26.5296 23.2806 27.0625 23.4453 27.5497C23.6101 28.0369 23.9606 28.4385 24.4199 28.6662C24.6845 28.7973 24.9755 28.8658 25.2706 28.8664C25.6312 28.8666 25.9847 28.7654 26.291 28.5741C26.5973 28.3829 26.8441 28.1092 27.0035 27.7842L36.9124 7.61409C37.0247 7.38566 37.0911 7.13725 37.1078 6.88304C37.1245 6.62883 37.0912 6.37381 37.0098 6.13253C36.9284 5.89125 36.8004 5.66845 36.6333 5.47685C36.4661 5.28524 36.263 5.12859 36.0356 5.01584" fill="#00B7AC"/>
<path d="M45.9026 4.92734C41.0624 4.94443 37.4124 8.95564 37.4124 14.2547V21.5337C37.4129 22.0482 37.6167 22.5414 37.979 22.9051C38.3413 23.2688 38.8325 23.4732 39.3446 23.4734C39.8568 23.4734 40.348 23.269 40.7103 22.9053C41.0725 22.5415 41.2761 22.0482 41.2763 21.5337V14.2547C41.2763 11.0583 43.186 8.81892 45.9026 8.80854C48.6338 8.81892 50.5417 11.0583 50.5417 14.2547V21.5337C50.5419 22.0482 50.7454 22.5415 51.1077 22.9053C51.4699 23.269 51.9611 23.4734 52.4733 23.4734C52.9856 23.4734 53.4769 23.2691 53.8394 22.9054C54.2018 22.5417 54.4056 22.0483 54.4061 21.5337V14.2547C54.4061 8.95564 50.755 4.94504 45.8996 4.92734" fill="#00B7AC"/>
<path d="M90 17.8753V17.9271C90 21.3768 87.4687 23.5198 83.3953 23.5198C80.9627 23.5186 78.5907 22.7578 76.6076 21.3426C76.3813 21.1738 76.1978 20.9537 76.0719 20.7002C75.9461 20.4468 75.8815 20.1671 75.8834 19.8839C75.8823 19.6468 75.9285 19.4119 76.0192 19.1931C76.1099 18.9742 76.2432 18.7757 76.4113 18.6093C76.5794 18.4429 76.779 18.3119 76.9982 18.2241C77.2175 18.1363 77.452 18.0935 77.688 18.098C78.0834 18.0937 78.4697 18.2169 78.7902 18.4496C80.1273 19.5043 81.7737 20.086 83.4736 20.1043C85.1543 20.1043 86.1581 19.4371 86.1581 18.319V18.2665C86.1581 17.1465 85.3609 16.6344 82.4516 15.8861C79.0679 15.0176 76.48 14.0618 76.48 10.3698V10.3179C76.48 7.11728 79.0679 4.88279 82.7737 4.88279C84.7971 4.85308 86.786 5.41066 88.5016 6.48861C88.7636 6.64841 88.9798 6.87386 89.1289 7.14286C89.278 7.41185 89.355 7.71515 89.3523 8.02303C89.3532 8.26004 89.307 8.49485 89.2164 8.71369C89.1258 8.93253 88.9926 9.13099 88.8246 9.29744C88.6567 9.46389 88.4573 9.59499 88.2382 9.68302C88.0192 9.77106 87.7848 9.81427 87.5489 9.81013C87.2029 9.81145 86.8636 9.71454 86.57 9.53058C85.4207 8.78018 84.0916 8.35413 82.722 8.29707C81.2638 8.29707 80.3232 8.9471 80.3232 9.95234V10.0036C80.3232 11.2658 81.1684 11.6625 84.2891 12.4645C87.7172 13.3636 90.0006 14.6264 90.0006 17.8765" fill="#00B7AC"/>
<path d="M70.379 31.511C70.3787 31.3483 70.3142 31.1923 70.1996 31.0772C70.0851 30.9622 69.9298 30.8974 69.7677 30.897C69.6872 30.8967 69.6073 30.9123 69.5328 30.943C69.4583 30.9737 69.3905 31.0189 69.3333 31.0759C69.2761 31.1329 69.2307 31.2007 69.1997 31.2754C69.1686 31.35 69.1525 31.4301 69.1522 31.511V37.0469H66.7953C66.2187 37.0469 64.4603 37.0469 64.4603 34.3614V31.5135C64.4598 31.3504 64.3949 31.1941 64.2798 31.079C64.1648 30.9639 64.009 30.8993 63.8466 30.8995C63.6845 30.8995 63.529 30.9642 63.4144 31.0793C63.2997 31.1945 63.2353 31.3506 63.2353 31.5135V34.3614C63.2353 36.8516 64.5338 38.2786 66.7953 38.2786H69.7775C69.8574 38.2778 69.9363 38.2612 70.0098 38.2297C70.0833 38.1982 70.1499 38.1525 70.2058 38.0951C70.2616 38.0377 70.3057 37.9698 70.3354 37.8953C70.3651 37.8208 70.38 37.7412 70.379 37.6609V37.6206C70.379 37.5974 70.379 37.5742 70.379 37.5468V31.511Z" fill="#00B7AC"/>
<path d="M72.6254 35.6767V28.6577C72.6244 28.4961 72.5601 28.3414 72.4463 28.2271C72.3326 28.1129 72.1786 28.0483 72.0177 28.0473C71.8559 28.047 71.7004 28.111 71.5854 28.2253C71.4703 28.3396 71.4049 28.4951 71.4034 28.6577V35.6767C71.4031 35.8407 71.4676 35.9981 71.5828 36.1144C71.698 36.2307 71.8544 36.2963 72.0177 36.2968C72.18 36.295 72.335 36.2288 72.4489 36.1126C72.5627 35.9964 72.6262 35.8397 72.6254 35.6767Z" fill="#00B7AC"/>
<path d="M67.025 29.2113C67.187 29.2106 67.3425 29.1469 67.4588 29.0336C67.5721 28.9176 67.6358 28.7616 67.6362 28.5991C67.6356 28.4353 67.5713 28.2783 67.457 28.1615C67.3415 28.048 67.1866 27.984 67.025 27.9832C66.8622 27.9828 66.7058 28.0471 66.5899 28.1621C66.4757 28.2789 66.4114 28.4359 66.4107 28.5997C66.4114 28.7627 66.4758 28.919 66.5899 29.0349C66.7062 29.1489 66.8625 29.2125 67.025 29.2119" fill="#00B7AC"/>
<path d="M59.8509 30.8946C59.6884 30.8946 59.5325 30.9591 59.4172 31.0742C59.3019 31.1892 59.2365 31.3453 59.2354 31.5086V35.0486H57.0359C56.4574 35.0486 54.6984 35.0486 54.6984 32.3631V28.6455C54.6989 28.4829 54.6352 28.3267 54.5213 28.2112C54.4074 28.0956 54.2526 28.0301 54.0908 28.029C53.9278 28.0288 53.7714 28.0937 53.656 28.2093C53.5406 28.3249 53.4756 28.4817 53.4753 28.6455V32.3594C53.4753 34.849 54.7737 36.2772 57.0377 36.2772H59.6984C59.7187 36.2772 59.739 36.2757 59.7592 36.273H59.7756H59.7926C59.8127 36.2759 59.833 36.2773 59.8533 36.2772C59.9334 36.2772 60.0127 36.2614 60.0866 36.2305C60.1605 36.1996 60.2276 36.1544 60.2841 36.0974C60.3405 36.0404 60.3852 35.9728 60.4156 35.8983C60.4459 35.8239 60.4614 35.7442 60.461 35.6638V31.5049C60.4614 31.4245 60.4461 31.3447 60.4158 31.2702C60.3855 31.1958 60.3408 31.128 60.2843 31.071C60.2278 31.0139 60.1607 30.9686 60.0867 30.9377C60.0128 30.9068 59.9334 30.8909 59.8533 30.8909" fill="#00B7AC"/>
<path d="M59.812 29.2137C59.9749 29.2131 60.1311 29.1485 60.2471 29.0337C60.361 28.9178 60.4253 28.7619 60.4263 28.5991C60.4252 28.435 60.3597 28.2779 60.244 28.1621C60.128 28.0481 59.9725 27.9836 59.8102 27.982C59.6473 27.9836 59.4915 28.0494 59.3764 28.1651C59.262 28.2811 59.1976 28.4376 59.1971 28.6009C59.1982 28.765 59.2637 28.9221 59.3794 29.0379C59.4946 29.1518 59.6498 29.2156 59.8114 29.2155" fill="#00B7AC"/>
<path d="M51.5923 30.8854C51.512 30.8854 51.4324 30.9013 51.3582 30.9322C51.284 30.9631 51.2166 31.0084 51.1598 31.0655C51.1031 31.1226 51.0581 31.1903 51.0274 31.2649C50.9967 31.3395 50.9809 31.4194 50.981 31.5001V33.5807C50.981 33.6418 50.9689 35.0523 49.8727 35.0523H48.008L48.0809 34.8826C48.2577 34.4714 48.3503 34.0286 48.3531 33.5807V31.5001C48.3529 31.3372 48.2885 31.1811 48.1739 31.0659C48.0593 30.9506 47.904 30.8858 47.7418 30.8854C47.6613 30.8853 47.5816 30.901 47.5071 30.9318C47.4327 30.9626 47.365 31.0079 47.308 31.0649C47.2509 31.122 47.2056 31.1898 47.1747 31.2645C47.1437 31.3391 47.1277 31.4192 47.1276 31.5001V33.5807C47.1276 33.6418 47.1136 35.0523 46.0211 35.0523H44.5245V31.4939C44.5234 31.3316 44.4584 31.1763 44.3436 31.0619C44.2289 30.9475 44.0737 30.8834 43.9121 30.8836C43.7503 30.8831 43.5949 30.9471 43.48 31.0615C43.365 31.1759 43.2999 31.3314 43.299 31.4939V37.0292H40.9931C40.4165 37.0292 38.6575 37.0292 38.6575 34.3437V31.4946C38.6563 31.3322 38.5913 31.1769 38.4765 31.0625C38.3618 30.9481 38.2066 30.8841 38.045 30.8842C37.8832 30.8837 37.7278 30.9477 37.6129 31.0621C37.4979 31.1765 37.4329 31.332 37.4319 31.4946V34.3437C37.4319 36.8339 38.7304 38.2615 40.9931 38.2615H43.8306C43.847 38.2615 43.8592 38.2615 43.8707 38.2615C43.8831 38.2608 43.8955 38.2608 43.9078 38.2615H43.9121C44.0746 38.261 44.2303 38.1959 44.3451 38.0803C44.4598 37.9648 44.5244 37.8083 44.5245 37.645V36.284H49.9663C49.9915 36.2839 50.0167 36.2823 50.0417 36.2791C51.6306 36.1711 52.2041 34.6055 52.2041 33.5813V31.5007C52.204 31.3376 52.1394 31.1813 52.0245 31.066C51.9097 30.9508 51.754 30.8861 51.5917 30.8861" fill="#00B7AC"/>
<path d="M78.2093 37.3295C78.1288 37.33 78.0493 37.3464 77.9752 37.3779C77.901 37.4093 77.8338 37.4551 77.7773 37.5126C77.7196 37.5694 77.6737 37.6372 77.6424 37.712C77.6111 37.7869 77.595 37.8672 77.595 37.9484C77.5966 38.1124 77.6621 38.2692 77.7773 38.3854C77.8922 38.5001 78.0473 38.5647 78.2093 38.5654C78.3721 38.5633 78.5277 38.4976 78.6431 38.3823C78.7568 38.266 78.8205 38.1095 78.8206 37.9465C78.8206 37.8656 78.8048 37.7855 78.7741 37.7107C78.7433 37.636 78.6982 37.568 78.6413 37.5108C78.5268 37.3952 78.3716 37.3294 78.2093 37.3277" fill="#00B7AC"/>
<path d="M76.4114 37.3295C76.2486 37.3318 76.0931 37.3975 75.9775 37.5126C75.8618 37.6274 75.7963 37.7838 75.7952 37.9472C75.7978 38.111 75.8631 38.2675 75.9775 38.3842C76.0931 38.4979 76.2478 38.5624 76.4095 38.5642C76.5725 38.5628 76.7283 38.497 76.8434 38.3811C76.959 38.2657 77.0246 38.1091 77.0257 37.9453C77.0253 37.8642 77.0091 37.784 76.9778 37.7092C76.9465 37.6344 76.9008 37.5666 76.8434 37.5096C76.7286 37.3932 76.5726 37.3273 76.4095 37.3264" fill="#00B7AC"/>
<path d="M86.1769 29.8356C84.865 29.7569 83.5724 30.1816 82.5604 31.024L82.5112 31.0673C82.4267 31.1406 82.3405 31.2181 82.2523 31.2992L82.05 31.4854V28.6577C82.0489 28.4955 81.984 28.3404 81.8695 28.226C81.755 28.1117 81.6002 28.0475 81.4388 28.0473C81.2772 28.0475 81.1222 28.1117 81.0076 28.226C80.8929 28.3402 80.8277 28.4954 80.8263 28.6577V33.6375C80.8263 33.6534 80.8305 33.6625 80.8305 33.6729C80.8305 33.6864 80.8291 33.6999 80.8263 33.7132C80.8269 33.8788 80.8924 34.0375 81.0086 34.1551C81.1227 34.2705 81.2774 34.3363 81.4394 34.3382C81.6023 34.3351 81.758 34.2696 81.8744 34.1551C81.9424 34.0811 81.9927 33.9926 82.0215 33.8963L82.0616 33.7651C82.1071 33.5991 82.1729 33.4394 82.2572 33.2896C82.4042 33.0284 82.5751 32.7816 82.7676 32.5523C82.9386 32.3558 83.1256 32.1739 83.3266 32.0085L83.3746 31.9651C84.1475 31.3307 85.1319 31.0156 86.1277 31.0838C87.9129 31.1491 88.2707 31.8772 88.2707 33.0308V35.0651H78.1303L78.2038 34.8966C78.3803 34.4849 78.4728 34.0418 78.476 33.5935V31.4836C78.476 31.4029 78.4601 31.323 78.4292 31.2484C78.3984 31.1739 78.3533 31.1062 78.2964 31.0491C78.2395 30.9921 78.172 30.9469 78.0978 30.9161C78.0235 30.8853 77.9439 30.8695 77.8636 30.8696C77.7014 30.8697 77.5459 30.9344 77.4311 31.0495C77.3163 31.1646 77.2516 31.3207 77.2511 31.4836V33.5911C77.2511 33.6521 77.2371 35.0626 76.1446 35.0626H74.8948V31.4836C74.8946 31.3208 74.8302 31.1647 74.7156 31.0496C74.601 30.9345 74.4456 30.8697 74.2835 30.8696C74.1215 30.8699 73.9662 30.9347 73.8517 31.0497C73.7371 31.1648 73.6726 31.3208 73.6723 31.4836V35.7407C73.652 36.1799 73.5119 36.605 73.2675 36.9696C73.0231 37.3343 72.6837 37.6245 72.2863 37.8086C72.1345 37.8667 72.0117 37.9826 71.9446 38.1313C71.8776 38.2799 71.8718 38.4491 71.9284 38.6021C71.9886 38.7536 72.1052 38.8756 72.2535 38.9422C72.4018 39.0087 72.57 39.0146 72.7226 38.9585C73.2518 38.7308 73.7192 38.3793 74.0858 37.9334C74.4525 37.4875 74.7078 36.9601 74.8304 36.395L74.851 36.298H88.902C89.0651 36.2972 89.2211 36.2314 89.336 36.1152C89.4508 35.9989 89.515 35.8416 89.5145 35.6779V33.0308C89.5145 30.9916 88.3911 29.918 86.1727 29.8362" fill="#00B7AC"/>
</g>
<defs>
<clipPath id="clip0_14_19">
<rect width="90" height="39" fill="white"/>
</clipPath>
</defs>
</svg>
