<svg width="49" height="34" viewBox="0 0 49 34" fill="none" xmlns="http://www.w3.org/2000/svg">
<g clip-path="url(#clip0_131_557)">
<path d="M10.5462 5.22254C10.5462 8.10695 8.20277 10.4451 5.31178 10.4451C2.4208 10.4451 0.0773315 8.10695 0.0773315 5.22254C0.0773315 2.33813 2.4208 0 5.31178 0C8.20277 0 10.5462 2.33813 10.5462 5.22254Z" fill="#31FFF7"/>
<path d="M48.647 16.0669L42.6712 5.08515C41.8944 3.66336 40.1048 3.13556 38.683 3.90913L36.5602 5.06371C35.8691 5.44142 35.3677 6.06325 35.1483 6.81372C34.9603 7.44874 34.99 8.10686 35.2324 8.72208C35.2605 8.8161 35.2984 8.90517 35.3446 8.98764L41.36 20.032C41.3649 20.0419 41.3715 20.0518 41.3781 20.0617L41.6668 20.5912C41.7426 20.7297 41.7327 20.8914 41.642 21.02L39.9431 23.4578C39.1415 24.6075 38.0711 25.5658 36.8422 26.2338L24.4288 32.9897C24.2193 33.1036 23.9752 33.1299 23.7476 33.064C23.5167 32.9947 23.327 32.843 23.2132 32.6318C22.979 32.2013 23.1373 31.6587 23.5629 31.4228L28.0014 29.0064C28.6134 28.6733 28.841 27.903 28.5078 27.2878C28.173 26.6775 27.4027 26.4515 26.7908 26.783L19.8319 30.5701C19.6208 30.6839 19.3767 30.7103 19.1491 30.6443C18.9198 30.5767 18.7318 30.4249 18.6163 30.2122C18.5009 30.001 18.4761 29.7602 18.5437 29.5293C18.6097 29.3033 18.7598 29.1153 18.9643 29.0031L25.9347 25.2112C26.5467 24.878 26.7743 24.1077 26.4411 23.4941C26.1096 22.8855 25.3426 22.6579 24.7241 22.9878L17.7718 26.7715C17.7619 26.7764 17.7504 26.783 17.7405 26.788L15.2317 28.1521C14.7963 28.3879 14.252 28.2279 14.0161 27.7941C13.9023 27.5847 13.8759 27.3422 13.9452 27.1129C14.0128 26.8837 14.1662 26.6956 14.3757 26.5802L16.8663 25.2244C16.8663 25.2244 16.8762 25.2194 16.8811 25.2161L23.8697 21.4126C24.48 21.0778 24.7059 20.3091 24.3744 19.6956C24.0429 19.0853 23.2726 18.8577 22.6574 19.1892L15.682 22.9878C15.2515 23.2104 14.7138 23.0471 14.4829 22.62C14.247 22.1862 14.407 21.6402 14.8408 21.4043L17.691 19.8539C18.3029 19.5207 18.5306 18.7505 18.1974 18.1352C17.8658 17.5282 17.0972 17.3006 16.4803 17.6289L13.6302 19.1793C11.9725 20.0832 11.3573 22.1697 12.2595 23.829C12.4096 24.1028 12.5943 24.3551 12.8088 24.5761C11.4233 25.5658 10.9581 27.4659 11.7927 29.0031C12.629 30.5321 14.473 31.1738 16.0597 30.5519C16.129 30.8538 16.2412 31.1457 16.3896 31.4212C16.8284 32.2244 17.5525 32.81 18.4283 33.0673C19.1689 33.2899 19.9457 33.2537 20.6583 32.97C20.7276 33.2718 20.8381 33.5654 20.9865 33.8392C21.5869 34.941 22.7415 35.6255 24 35.6255C24.5674 35.6255 25.1331 35.482 25.6345 35.2098L38.048 28.4539C39.6182 27.5995 40.9905 26.3707 42.0131 24.9027L43.7137 22.4649C43.9066 22.1862 44.0501 21.8777 44.1392 21.5528C44.5582 21.5247 44.9705 21.4043 45.3416 21.2031L47.4661 20.0469C48.1572 19.6692 48.6586 19.0473 48.878 18.2985C49.1006 17.5464 49.0165 16.7514 48.6421 16.0619L48.647 16.0669ZM46.4566 17.586C46.4253 17.6915 46.3577 17.7757 46.2603 17.8284L44.1343 18.9847C44.0386 19.0374 43.933 19.049 43.8258 19.016C43.7203 18.9847 43.6378 18.917 43.585 18.8197L37.6092 7.838C37.5581 7.74234 37.5449 7.63183 37.5762 7.52792C37.6076 7.42235 37.6768 7.33659 37.7725 7.28545L39.8953 6.13087C39.9563 6.09788 40.0223 6.07974 40.0883 6.07974C40.1279 6.07974 40.1674 6.08469 40.207 6.09788C40.3126 6.12922 40.3967 6.19685 40.4495 6.29416L46.4253 17.2759C46.4781 17.3716 46.4896 17.4788 46.4583 17.5843L46.4566 17.586Z" fill="#00B7AC"/>
<path d="M32.3114 8.16432C31.8397 7.3792 31.0909 6.825 30.2019 6.60563L19.2828 3.89401C17.5493 3.46187 15.7069 3.44043 13.9585 3.83133L11.0572 4.47955C10.7207 4.55542 10.4073 4.68573 10.1269 4.86386C9.80036 4.60326 9.42265 4.41357 9.00535 4.30966L6.65989 3.72742C5.89457 3.53774 5.10451 3.6565 4.4365 4.06225C3.76189 4.46635 3.28686 5.10962 3.09883 5.8733L0.0870149 18.0047C-0.303894 19.5765 0.659359 21.1732 2.23289 21.5657L4.5767 22.148C4.81091 22.2057 5.05172 22.2354 5.28924 22.2354C5.47067 22.2354 5.65046 22.2172 5.82695 22.1842C5.99189 22.4712 6.20631 22.7318 6.46856 22.9562L9.02844 25.1433C9.25771 25.3395 9.54965 25.4468 9.85149 25.4468C10.221 25.4468 10.5723 25.2851 10.8131 25.0047C11.0341 24.7474 11.1397 24.4192 11.1133 24.0811C11.0869 23.7446 10.9302 23.4378 10.6745 23.2201L8.11467 21.033C7.99426 20.929 7.94478 20.7773 7.98437 20.6223L11.3063 7.24725C11.3426 7.1021 11.4646 6.98169 11.6131 6.94871L14.516 6.30049C15.8768 5.99205 17.3151 6.0102 18.6758 6.34832L29.5949 9.05994C29.8274 9.11767 30.0237 9.26282 30.1474 9.46734C30.2711 9.67187 30.3058 9.91268 30.248 10.1436C30.1903 10.3762 30.0435 10.5741 29.8357 10.6978C29.6312 10.8199 29.392 10.8561 29.1627 10.7984L22.8702 9.23478C22.5519 9.15561 22.2039 9.20674 21.9136 9.37828C21.6299 9.54981 21.4188 9.83351 21.3379 10.1584C21.0477 11.3246 20.3219 12.3076 19.2943 12.9261C18.2602 13.5463 17.0511 13.7278 15.8883 13.4391L14.4814 13.0894C13.8068 12.9311 13.1223 13.3467 12.9557 14.0147C12.8749 14.343 12.926 14.6828 13.1008 14.9714C13.2757 15.2617 13.5528 15.4662 13.881 15.547L15.2797 15.8951C15.8487 16.0369 16.4194 16.1045 16.9835 16.1045C19.705 16.1045 22.2319 14.5162 23.3783 11.9695L28.5541 13.2544C30.3882 13.708 32.2504 12.5864 32.7057 10.7555C32.9267 9.8665 32.7881 8.94613 32.3164 8.16267L32.3114 8.16432ZM5.49377 19.6458C5.39975 19.7035 5.29254 19.7184 5.18698 19.692L2.84152 19.1098C2.62215 19.0553 2.48855 18.8327 2.54298 18.6149L5.55644 6.48028C5.58283 6.37471 5.64716 6.2873 5.74118 6.23122C5.80715 6.19163 5.87808 6.17184 5.95065 6.17184C5.98364 6.17184 6.01828 6.17679 6.05126 6.18503L8.39837 6.76727C8.50228 6.79201 8.5897 6.85799 8.64743 6.95365C8.70351 7.04767 8.72 7.15323 8.69361 7.26209L5.6785 19.3968C5.65211 19.5023 5.58943 19.5881 5.49377 19.6458Z" fill="#00B7AC"/>
</g>
<defs>
<clipPath id="clip0_131_557">
<rect width="49" height="34" fill="white"/>
</clipPath>
</defs>
</svg>
