<svg width="49" height="42" viewBox="0 0 49 42" fill="none" xmlns="http://www.w3.org/2000/svg">
<g clip-path="url(#clip0_131_545)">
<path d="M14.092 33.2083C14.092 37.1142 10.9375 40.2803 7.04598 40.2803C3.15449 40.2803 0 37.1142 0 33.2083C0 29.3024 3.15449 26.1362 7.04598 26.1362C10.9375 26.1362 14.092 29.3024 14.092 33.2083Z" fill="#31FFF7"/>
<path d="M26.3947 12.1145H20.5963C17.5461 12.1145 15.0665 9.62345 15.0665 6.56424V5.82228C15.0665 2.61379 17.6682 0.00244141 20.8649 0.00244141C24.0615 0.00244141 26.3947 2.49348 26.3947 5.55268V12.1145ZM20.8649 3.61422C19.6528 3.61422 18.6649 4.6035 18.6649 5.82228V6.56424C18.6649 7.63151 19.5307 8.50048 20.594 8.50048H22.794V5.55045C22.794 4.48318 21.9282 3.61422 20.8649 3.61422Z" fill="#00B7AC"/>
<path d="M31.6248 12.1145H25.8264V5.55268C25.8264 2.49125 28.3082 0.00244141 31.3561 0.00244141C34.4041 0.00244141 37.1545 2.61379 37.1545 5.82228V6.56424C37.1545 9.62568 34.6727 12.1145 31.6248 12.1145ZM29.4248 8.50048H31.6248C32.6881 8.50048 33.5538 7.63151 33.5538 6.56424V5.82228C33.5538 4.60573 32.5682 3.61422 31.3539 3.61422C30.2906 3.61422 29.4248 4.48318 29.4248 5.55045V8.50048Z" fill="#00B7AC"/>
<path d="M27.3293 39.8812H23.7286V25.1244C23.7286 24.1262 24.5344 23.3174 25.5289 23.3174C26.5234 23.3174 27.3293 24.1262 27.3293 25.1244V39.8812Z" fill="#00B7AC"/>
<path d="M27.5735 10.3076H23.9728V19.7526H27.5735V10.3076Z" fill="#00B7AC"/>
<path d="M11.2727 17.9746L10.9707 21.5886H41.2458V38.3262C41.2214 38.3507 41.2103 38.3619 41.1859 38.3864L10.9707 38.3262V24.6166C10.9707 23.6184 10.1649 22.8096 9.1704 22.8096C8.17588 22.8096 7.37006 23.6184 7.37006 24.6166V38.3262C7.37006 40.356 9.00835 42.0004 11.0307 42.0004H41.1859C43.206 42.0004 44.8465 40.356 44.8465 38.3262V17.9746H11.2727Z" fill="#00B7AC"/>
<path d="M43.6132 21.088H8.16572C5.31758 21.088 3 18.7618 3 15.9031V13.1848C3 10.3262 5.31758 8 8.16572 8H43.6132C46.4613 8 48.7789 10.3262 48.7789 13.1848V15.9031C48.7789 18.7618 46.4613 21.088 43.6132 21.088ZM8.16572 11.643C7.31994 11.643 6.63177 12.3337 6.63177 13.1826V15.9009C6.63177 16.7498 7.31994 17.4405 8.16572 17.4405H43.6132C44.459 17.4405 45.1471 16.7498 45.1471 15.9009V13.1826C45.1471 12.3337 44.459 11.643 43.6132 11.643H8.16572Z" fill="#00B7AC"/>
</g>
<defs>
<clipPath id="clip0_131_545">
<rect width="49" height="42" fill="white"/>
</clipPath>
</defs>
</svg>
